# xmcd CD database file
#
# Track frame offsets:
#	150
#	17933
#	38520
#	57947
#	77801
#	111820
#	134654
#	146074
#	167617
#	189751
#	208183
#	229350
#	246968
#	270623
#	296409
#	318577
#
# Disc length: 4476 seconds
#
# Revision: 0
# Processed by: cddbd v1.5.2PL0 Copyright (c) Steve Scherf et al.
# Submitted via: CDex 1.70beta2
#
DISCID=ec117a10
DTITLE=ERA - Greatest Hits Star Mark (2
DYEAR=2007
DGENRE=New Age
TTITLE0=Divano
TTITLE1=Enae Volare Mezzo
TTITLE2=Devore Avante
TTITLE3=Madona
TTITLE4=Infinity Ocean
TTITLE5=Flowers Of The Sea
TTITLE6=Angel
TTITLE7=Celebration
TTITLE8=Wankatakiya
TTITLE9=Siocham Agus Jonannas
TTITLE10=Jorney To Shambata
TTITLE11=Liohan Amitabhas Hands
TTITLE12=Boddhisattha Land
TTITLE13=TaraShakti Mantra
TTITLE14=Saeral Nirvana
TTITLE15=If You Shout
EXTD=YEAR: 2007
EXTT0=
EXTT1=
EXTT2=
EXTT3=
EXTT4=
EXTT5=
EXTT6=
EXTT7=
EXTT8=
EXTT9=
EXTT10=
EXTT11=
EXTT12=
EXTT13=
EXTT14=
EXTT15=
PLAYORDER=
